<svg id="outSvg" viewBox="0 0 512 384" version="1.1"
    xmlns="http://www.w3.org/2000/svg" onclick="badApple.play()">
    <path fill="#000000" opacity="1.00" d=" M 0.00 0.00 L 512.00 0.00 L 512.00 208.62 C 504.40 203.09 496.85 197.45 489.94 191.08 C 484.04 185.30 478.31 179.35 472.42 173.56 C 470.45 171.76 467.76 169.17 464.96 170.99 C 451.79 177.92 437.44 182.24 424.31 189.26 C 409.32 196.44 395.58 207.14 378.82 209.90 C 368.48 211.58 357.98 209.54 348.00 206.79 C 344.15 205.78 340.18 203.79 336.14 205.04 C 330.89 206.51 325.62 207.93 320.26 208.97 C 315.19 202.63 309.93 196.44 305.05 189.95 C 302.21 186.17 299.82 181.89 295.89 179.11 C 289.16 173.99 280.87 171.68 273.76 167.22 C 272.70 166.40 270.85 165.67 271.36 164.00 C 271.89 161.18 272.97 158.50 273.78 155.75 C 271.76 155.50 269.72 155.49 267.70 155.58 C 267.93 154.23 268.08 152.86 268.50 151.55 C 270.18 150.34 272.20 149.77 274.11 149.01 C 274.34 151.43 274.58 153.86 274.93 156.26 C 276.00 154.99 277.07 153.71 278.13 152.42 C 278.39 152.92 278.91 153.93 279.17 154.43 C 280.13 152.45 281.11 150.47 282.15 148.52 C 282.49 152.66 282.62 156.82 283.10 160.96 C 284.23 157.82 284.86 154.53 286.01 151.41 C 286.36 154.53 286.22 157.68 286.35 160.81 C 287.96 155.22 289.48 149.59 290.98 143.96 C 291.68 146.30 292.40 148.64 293.24 150.94 C 293.55 149.50 293.85 148.06 294.15 146.62 C 294.75 147.51 295.36 148.41 295.98 149.31 C 297.41 145.59 298.55 141.78 299.68 137.97 C 300.35 139.56 301.02 141.16 301.72 142.74 C 302.95 139.85 304.15 136.96 305.43 134.09 C 307.48 136.86 309.59 139.60 312.08 141.99 C 311.42 136.74 310.09 131.61 309.29 126.38 C 312.72 126.43 316.15 126.44 319.58 126.32 C 319.89 134.19 320.64 142.15 323.58 149.53 C 326.79 157.13 326.97 165.48 328.78 173.43 C 330.04 169.89 330.70 166.19 331.39 162.50 C 331.78 167.76 333.17 172.85 333.73 178.08 C 334.99 177.69 336.27 177.36 337.59 177.19 C 338.82 179.55 339.22 182.21 340.16 184.68 C 340.47 181.65 340.23 178.62 340.23 175.59 C 340.80 177.11 341.29 178.66 341.79 180.21 C 342.37 177.80 343.04 175.42 343.77 173.05 C 344.73 173.26 345.69 173.47 346.66 173.68 C 349.79 165.55 352.76 157.31 354.55 148.77 C 354.74 145.80 354.43 142.83 354.56 139.86 C 355.67 140.94 356.75 142.06 357.85 143.17 C 354.56 129.06 352.43 114.63 347.45 100.97 C 348.97 100.16 350.49 99.34 352.00 98.48 C 350.47 91.80 346.92 84.73 349.63 77.88 C 352.95 67.31 352.23 55.17 346.49 45.55 C 344.57 44.08 342.23 43.22 339.96 42.47 C 335.52 43.12 331.14 44.30 327.12 46.31 C 324.13 47.87 320.60 47.33 317.54 48.63 C 316.04 49.67 314.99 51.21 313.87 52.63 C 311.25 41.33 304.58 30.60 294.51 24.52 C 287.77 20.50 279.95 18.01 272.04 18.31 C 259.02 18.37 246.00 18.41 232.98 18.40 C 221.27 18.58 209.62 24.28 203.05 34.10 C 196.01 45.19 193.32 58.74 194.53 71.74 C 194.90 74.38 196.49 76.95 195.87 79.66 C 193.71 83.15 190.60 85.92 187.67 88.75 C 184.90 91.71 180.45 90.90 176.85 91.78 C 177.00 93.71 177.22 95.63 177.47 97.54 C 175.94 98.97 174.40 100.40 173.13 102.07 C 175.40 104.46 178.30 106.12 180.85 108.18 C 185.02 111.25 188.77 115.24 193.93 116.62 C 195.06 114.94 196.13 113.23 197.23 111.53 C 197.65 112.88 198.07 114.23 198.45 115.59 C 199.05 115.57 200.25 115.53 200.86 115.50 C 199.80 121.70 194.19 125.82 190.68 130.73 C 194.15 129.98 197.46 128.67 200.81 127.51 C 200.63 131.86 199.99 136.18 199.99 140.53 C 201.78 138.22 203.29 135.71 204.90 133.28 C 206.55 137.00 207.92 140.84 209.64 144.53 C 210.38 143.00 211.05 141.43 211.72 139.87 C 212.42 143.00 213.52 146.03 214.27 149.15 C 214.60 152.18 214.30 155.25 214.47 158.30 C 215.48 155.88 216.38 153.43 217.30 150.99 C 218.16 152.09 219.01 153.20 219.87 154.31 C 219.46 149.15 219.14 143.97 219.27 138.80 C 221.01 144.41 220.65 150.27 220.95 156.05 C 221.80 154.08 222.51 152.06 223.19 150.03 C 223.89 154.13 224.06 158.30 224.51 162.44 C 225.31 157.31 226.68 152.20 226.43 146.98 C 227.19 148.50 227.98 150.00 228.87 151.45 C 229.19 148.84 229.36 146.20 229.67 143.58 C 230.86 148.28 231.53 153.08 232.52 157.81 C 233.59 154.70 234.50 151.53 235.58 148.42 C 238.46 149.80 241.82 151.11 242.78 154.49 C 240.68 154.98 238.58 155.42 236.48 155.90 C 237.12 159.00 238.84 162.03 238.42 165.27 C 235.05 168.68 230.50 170.52 226.16 172.33 C 219.91 174.82 213.80 178.20 209.25 183.25 C 202.69 191.54 197.45 201.01 190.01 208.54 C 184.14 208.04 178.68 205.57 172.93 204.51 C 168.30 204.37 164.03 206.62 159.56 207.54 C 150.50 209.57 141.03 211.48 131.78 209.55 C 116.00 206.96 102.92 197.12 88.94 190.09 C 75.16 182.71 60.08 178.15 46.34 170.68 C 43.64 169.45 41.05 171.40 39.16 173.17 C 31.49 180.49 24.55 188.59 16.35 195.35 C 11.17 200.00 5.32 203.82 0.00 208.29 L 0.00 0.00 Z" />
    <path fill="#ffffff" opacity="1.00" d=" M 203.05 34.10 C 209.62 24.28 221.27 18.58 232.98 18.40 C 246.00 18.41 259.02 18.37 272.04 18.31 C 279.95 18.01 287.77 20.50 294.51 24.52 C 304.58 30.60 311.25 41.33 313.87 52.63 C 314.99 51.21 316.04 49.67 317.54 48.63 C 320.60 47.33 324.13 47.87 327.12 46.31 C 331.14 44.30 335.52 43.12 339.96 42.47 C 342.23 43.22 344.57 44.08 346.49 45.55 C 352.23 55.17 352.95 67.31 349.63 77.88 C 346.92 84.73 350.47 91.80 352.00 98.48 C 350.49 99.34 348.97 100.16 347.45 100.97 C 352.43 114.63 354.56 129.06 357.85 143.17 C 356.75 142.06 355.67 140.94 354.56 139.86 C 354.43 142.83 354.74 145.80 354.55 148.77 C 352.76 157.31 349.79 165.55 346.66 173.68 C 345.69 173.47 344.73 173.26 343.77 173.05 C 343.04 175.42 342.37 177.80 341.79 180.21 C 341.29 178.66 340.80 177.11 340.23 175.59 C 340.23 178.62 340.47 181.65 340.16 184.68 C 339.22 182.21 338.82 179.55 337.59 177.19 C 336.27 177.36 334.99 177.69 333.73 178.08 C 333.17 172.85 331.78 167.76 331.39 162.50 C 330.70 166.19 330.04 169.89 328.78 173.43 C 326.97 165.48 326.79 157.13 323.58 149.53 C 320.64 142.15 319.89 134.19 319.58 126.32 C 316.15 126.44 312.72 126.43 309.29 126.38 C 310.09 131.61 311.42 136.74 312.08 141.99 C 309.59 139.60 307.48 136.86 305.43 134.09 C 304.15 136.96 302.95 139.85 301.72 142.74 C 301.02 141.16 300.35 139.56 299.68 137.97 C 298.55 141.78 297.41 145.59 295.98 149.31 C 295.36 148.41 294.75 147.51 294.15 146.62 C 293.85 148.06 293.55 149.50 293.24 150.94 C 292.40 148.64 291.68 146.30 290.98 143.96 C 289.48 149.59 287.96 155.22 286.35 160.81 C 286.22 157.68 286.36 154.53 286.01 151.41 C 284.86 154.53 284.23 157.82 283.10 160.96 C 282.62 156.82 282.49 152.66 282.15 148.52 C 281.11 150.47 280.13 152.45 279.17 154.43 C 278.91 153.93 278.39 152.92 278.13 152.42 C 277.07 153.71 276.00 154.99 274.93 156.26 C 274.58 153.86 274.34 151.43 274.11 149.01 C 272.20 149.77 270.18 150.34 268.50 151.55 C 268.08 152.86 267.93 154.23 267.70 155.58 C 269.72 155.49 271.76 155.50 273.78 155.75 C 272.97 158.50 271.89 161.18 271.36 164.00 C 270.85 165.67 272.70 166.40 273.76 167.22 C 280.87 171.68 289.16 173.99 295.89 179.11 C 299.82 181.89 302.21 186.17 305.05 189.95 C 309.93 196.44 315.19 202.63 320.26 208.97 C 325.62 207.93 330.89 206.51 336.14 205.04 C 340.18 203.79 344.15 205.78 348.00 206.79 C 357.98 209.54 368.48 211.58 378.82 209.90 C 395.58 207.14 409.32 196.44 424.31 189.26 C 437.44 182.24 451.79 177.92 464.96 170.99 C 467.76 169.17 470.45 171.76 472.42 173.56 C 478.31 179.35 484.04 185.30 489.94 191.08 C 496.85 197.45 504.40 203.09 512.00 208.62 L 512.00 225.81 C 503.13 221.05 495.12 214.84 487.82 207.95 C 489.76 212.29 492.49 216.21 494.62 220.45 C 495.43 221.82 495.22 223.44 495.05 224.96 C 493.43 236.65 492.15 248.38 490.61 260.08 C 489.76 266.33 489.63 272.80 487.36 278.76 C 485.43 276.81 483.93 274.50 483.09 271.90 C 477.38 256.20 471.21 240.65 465.62 224.92 C 466.09 220.48 467.86 216.26 468.97 211.95 C 469.66 208.06 473.99 206.10 474.23 202.07 C 474.40 199.80 475.92 198.07 476.92 196.14 C 474.09 192.33 471.05 188.64 467.81 185.17 C 465.86 182.83 462.78 184.47 460.77 185.79 C 455.08 189.49 448.79 192.09 442.48 194.54 C 443.11 196.45 443.20 198.76 444.89 200.12 C 448.76 203.56 450.35 208.66 452.98 212.98 C 454.74 215.54 454.65 218.71 454.00 221.62 C 451.60 235.96 449.93 250.41 447.81 264.79 C 447.40 267.85 446.66 270.86 445.66 273.78 C 441.22 268.82 440.38 261.97 438.03 255.97 C 433.97 245.22 430.77 234.17 426.61 223.46 C 425.66 221.06 424.91 218.40 425.81 215.86 C 427.24 211.17 428.27 206.26 430.92 202.07 C 431.95 200.64 431.97 198.85 432.29 197.19 C 420.28 199.84 410.24 207.27 400.29 214.08 C 400.07 215.79 399.86 217.50 399.64 219.22 C 401.86 220.70 404.33 222.16 405.32 224.81 C 407.09 228.94 409.27 232.92 410.84 237.12 C 410.67 242.17 409.51 247.12 408.87 252.12 C 406.99 263.55 405.49 275.03 403.68 286.47 C 403.29 289.03 402.76 291.60 401.66 293.97 C 398.05 291.00 397.60 286.01 395.99 281.91 C 391.75 267.74 386.68 253.83 382.54 239.62 C 382.05 235.61 384.35 231.86 385.11 227.99 C 385.67 224.76 387.66 222.17 389.94 219.93 C 379.60 217.68 369.00 218.50 358.50 218.42 C 357.73 219.31 356.97 220.20 356.20 221.10 C 362.11 224.57 363.27 231.68 365.74 237.49 C 367.09 240.13 366.05 243.03 365.50 245.72 C 362.75 257.59 360.47 269.56 357.78 281.44 C 356.59 286.54 356.27 291.97 353.77 296.67 C 351.69 296.48 351.54 293.83 350.80 292.32 C 346.57 276.08 343.05 259.65 338.70 243.44 C 337.24 238.30 340.49 233.53 341.78 228.73 C 342.61 225.25 345.37 222.93 348.02 220.78 C 347.19 220.03 346.33 219.32 345.45 218.65 C 339.07 217.76 332.66 218.77 326.32 219.44 C 326.66 221.48 327.53 223.59 327.01 225.67 C 325.80 227.76 323.93 229.35 322.26 231.06 C 324.43 233.25 326.05 235.88 327.85 238.36 C 328.74 239.51 327.65 240.98 326.75 241.74 C 324.96 243.46 322.66 244.48 320.49 245.62 C 323.71 257.24 327.67 269.22 326.62 281.42 C 344.46 291.37 360.12 304.66 376.93 316.15 C 379.58 318.14 383.00 317.73 386.00 316.96 C 394.21 315.22 402.43 317.65 410.33 319.72 C 413.71 321.11 417.61 323.17 418.63 326.99 C 417.41 328.32 416.08 330.19 414.00 329.63 C 411.31 328.95 408.87 327.51 406.12 327.01 C 406.01 330.35 407.13 334.14 410.55 335.45 C 418.67 339.30 426.39 344.39 435.34 346.15 C 442.10 347.90 449.25 345.54 455.87 348.03 C 451.72 353.17 445.59 357.05 438.94 357.80 C 433.84 358.60 428.75 360.82 423.52 359.62 C 417.74 358.42 411.58 358.46 406.24 355.66 C 396.74 351.08 388.58 343.96 378.51 340.53 C 368.04 337.19 358.83 331.04 349.28 325.77 C 338.30 319.09 326.70 313.32 316.43 305.53 C 310.91 301.33 307.45 295.15 305.16 288.72 C 304.07 292.34 301.49 295.39 300.83 299.14 C 301.06 304.83 302.85 310.34 303.38 316.00 C 303.41 318.36 300.96 320.49 302.14 322.84 C 304.21 327.72 306.89 332.33 308.72 337.33 C 316.37 351.98 320.50 368.06 324.46 384.00 L 187.51 384.00 C 189.97 375.81 191.48 367.36 194.32 359.29 C 197.17 350.19 201.08 341.47 205.08 332.83 C 206.29 330.14 207.97 327.60 208.54 324.67 C 209.38 320.96 207.54 317.27 208.43 313.56 C 209.66 307.52 209.90 301.33 209.50 295.19 C 208.37 291.36 206.70 287.70 205.38 283.93 C 203.31 288.88 201.56 294.02 198.54 298.51 C 194.28 305.23 187.50 309.69 181.08 314.12 C 170.05 321.42 159.05 328.76 147.88 335.84 C 141.49 339.54 135.54 344.12 128.55 346.66 C 122.97 348.71 117.23 350.30 111.80 352.74 C 105.55 355.66 99.23 358.55 92.61 360.53 C 85.95 361.28 79.08 360.91 72.56 359.28 C 63.61 355.67 53.39 352.99 47.32 344.89 C 53.18 342.50 59.04 346.14 64.99 345.59 C 75.06 344.77 84.63 341.22 94.10 337.94 C 97.23 337.13 98.32 333.96 99.43 331.31 C 98.83 330.97 97.62 330.27 97.01 329.92 C 94.78 330.69 92.57 331.73 90.18 331.87 C 88.49 330.87 85.99 328.83 87.83 326.82 C 89.95 324.54 92.93 323.08 95.95 322.45 C 101.30 322.06 106.69 322.23 112.05 322.26 C 116.07 322.19 119.26 325.00 122.99 325.97 C 125.38 325.35 127.23 323.60 129.15 322.16 C 142.77 311.11 156.30 299.93 170.29 289.35 C 173.69 286.62 177.80 284.85 181.06 281.98 C 181.83 269.45 184.98 257.21 189.09 245.39 C 186.00 243.62 181.79 242.10 181.28 238.03 C 183.27 235.72 185.58 233.72 187.56 231.41 C 185.88 229.43 183.71 227.56 183.26 224.87 C 183.06 222.95 183.39 221.04 183.54 219.14 C 177.29 218.05 170.93 218.47 164.62 218.44 C 164.33 219.03 163.75 220.22 163.46 220.81 C 165.78 222.72 168.24 224.74 169.21 227.72 C 170.99 232.75 174.52 237.95 172.60 243.47 C 169.00 257.43 165.88 271.51 162.40 285.51 C 161.83 287.76 161.17 290.16 159.23 291.64 C 156.49 286.78 155.72 281.18 154.29 275.86 C 151.46 264.91 148.55 253.98 145.81 243.01 C 144.41 237.43 147.61 232.26 149.33 227.15 C 150.12 224.38 152.65 222.85 154.73 221.12 C 154.32 220.51 153.51 219.29 153.10 218.68 C 142.77 216.48 132.19 218.22 121.89 219.62 C 125.19 224.07 126.62 229.49 128.40 234.65 C 129.71 238.14 127.98 241.68 126.97 245.00 C 123.40 255.26 120.38 265.68 116.94 275.98 C 115.30 280.68 114.56 285.93 111.06 289.72 C 108.88 284.67 108.24 279.17 107.20 273.82 C 105.23 262.47 102.97 251.16 100.95 239.82 C 100.04 234.86 103.60 230.68 105.13 226.22 C 106.22 222.89 108.59 220.33 111.75 218.85 C 111.04 216.57 111.01 213.66 108.58 212.46 C 99.47 206.06 90.04 199.20 78.84 197.19 C 81.18 203.80 84.58 210.12 85.72 217.12 C 85.92 218.98 85.18 220.75 84.61 222.48 C 80.56 233.32 76.92 244.31 73.05 255.21 C 71.10 260.20 69.92 265.57 66.75 270.01 C 65.84 268.23 64.99 266.40 64.66 264.42 C 61.95 248.88 59.63 233.27 56.97 217.71 C 56.50 215.27 58.23 213.17 59.10 211.03 C 61.20 207.27 62.47 202.82 65.92 200.02 C 67.73 198.78 68.06 196.54 68.77 194.63 C 62.74 191.92 56.52 189.58 50.91 186.05 C 48.91 185.26 46.65 182.72 44.49 184.31 C 40.48 187.76 37.57 192.24 34.03 196.14 C 35.20 197.35 36.37 198.57 37.53 199.81 C 37.35 201.18 37.21 202.56 37.10 203.94 C 38.56 206.03 41.15 207.26 42.02 209.76 C 43.60 214.13 45.20 218.52 46.37 223.02 C 41.52 238.06 35.80 252.83 30.79 267.83 C 30.02 270.42 28.54 272.71 26.77 274.74 C 24.48 269.90 24.08 264.51 23.10 259.32 C 21.09 246.85 18.57 234.45 16.91 221.94 C 18.38 217.01 21.54 212.78 23.32 207.95 C 16.27 214.63 8.52 220.59 0.00 225.28 L 0.00 208.29 C 5.32 203.82 11.17 200.00 16.35 195.35 C 24.55 188.59 31.49 180.49 39.16 173.17 C 41.05 171.40 43.64 169.45 46.34 170.68 C 60.08 178.15 75.16 182.71 88.94 190.09 C 102.92 197.12 116.00 206.96 131.78 209.55 C 141.03 211.48 150.50 209.57 159.56 207.54 C 164.03 206.62 168.30 204.37 172.93 204.51 C 178.68 205.57 184.14 208.04 190.01 208.54 C 197.45 201.01 202.69 191.54 209.25 183.25 C 213.80 178.20 219.91 174.82 226.16 172.33 C 230.50 170.52 235.05 168.68 238.42 165.27 C 238.84 162.03 237.12 159.00 236.48 155.90 C 238.58 155.42 240.68 154.98 242.78 154.49 C 241.82 151.11 238.46 149.80 235.58 148.42 C 234.50 151.53 233.59 154.70 232.52 157.81 C 231.53 153.08 230.86 148.28 229.67 143.58 C 229.36 146.20 229.19 148.84 228.87 151.45 C 227.98 150.00 227.19 148.50 226.43 146.98 C 226.68 152.20 225.31 157.31 224.51 162.44 C 224.06 158.30 223.89 154.13 223.19 150.03 C 222.51 152.06 221.80 154.08 220.95 156.05 C 220.65 150.27 221.01 144.41 219.27 138.80 C 219.14 143.97 219.46 149.15 219.87 154.31 C 219.01 153.20 218.16 152.09 217.30 150.99 C 216.38 153.43 215.48 155.88 214.47 158.30 C 214.30 155.25 214.60 152.18 214.27 149.15 C 213.52 146.03 212.42 143.00 211.72 139.87 C 211.05 141.43 210.38 143.00 209.64 144.53 C 207.92 140.84 206.55 137.00 204.90 133.28 C 203.29 135.71 201.78 138.22 199.99 140.53 C 199.99 136.18 200.63 131.86 200.81 127.51 C 197.46 128.67 194.15 129.98 190.68 130.73 C 194.19 125.82 199.80 121.70 200.86 115.50 C 200.25 115.53 199.05 115.57 198.45 115.59 C 198.07 114.23 197.65 112.88 197.23 111.53 C 196.13 113.23 195.06 114.94 193.93 116.62 C 188.77 115.24 185.02 111.25 180.85 108.18 C 178.30 106.12 175.40 104.46 173.13 102.07 C 174.40 100.40 175.94 98.97 177.47 97.54 C 177.22 95.63 177.00 93.71 176.85 91.78 C 180.45 90.90 184.90 91.71 187.67 88.75 C 190.60 85.92 193.71 83.15 195.87 79.66 C 196.49 76.95 194.90 74.38 194.53 71.74 C 193.32 58.74 196.01 45.19 203.05 34.10 Z" />
    <path fill="#000000" opacity="1.00" d=" M 312.46 109.51 C 314.98 103.63 317.17 97.62 319.25 91.58 C 320.59 96.90 321.05 102.40 321.29 107.85 C 320.65 113.61 320.45 119.42 319.52 125.15 C 317.31 123.94 314.07 123.35 313.46 120.50 C 312.61 116.95 310.39 113.01 312.46 109.51 Z" />
    <path fill="#000000" opacity="1.00" d=" M 242.98 142.50 C 246.97 143.09 250.97 143.74 255.01 143.94 C 259.04 143.83 263.03 143.10 267.03 142.56 C 263.64 144.50 259.92 145.87 256.03 146.31 C 251.41 146.38 246.97 144.71 242.98 142.50 Z" />
    <path fill="#000000" opacity="1.00" d=" M 44.49 184.31 C 46.65 182.72 48.91 185.26 50.91 186.05 C 56.52 189.58 62.74 191.92 68.77 194.63 C 68.06 196.54 67.73 198.78 65.92 200.02 C 62.47 202.82 61.20 207.27 59.10 211.03 C 58.23 213.17 56.50 215.27 56.97 217.71 C 59.63 233.27 61.95 248.88 64.66 264.42 C 64.99 266.40 65.84 268.23 66.75 270.01 C 69.92 265.57 71.10 260.20 73.05 255.21 C 76.92 244.31 80.56 233.32 84.61 222.48 C 85.18 220.75 85.92 218.98 85.72 217.12 C 84.58 210.12 81.18 203.80 78.84 197.19 C 90.04 199.20 99.47 206.06 108.58 212.46 C 111.01 213.66 111.04 216.57 111.75 218.85 C 108.59 220.33 106.22 222.89 105.13 226.22 C 103.60 230.68 100.04 234.86 100.95 239.82 C 102.97 251.16 105.23 262.47 107.20 273.82 C 108.24 279.17 108.88 284.67 111.06 289.72 C 114.56 285.93 115.30 280.68 116.94 275.98 C 120.38 265.68 123.40 255.26 126.97 245.00 C 127.98 241.68 129.71 238.14 128.40 234.65 C 126.62 229.49 125.19 224.07 121.89 219.62 C 132.19 218.22 142.77 216.48 153.10 218.68 C 153.51 219.29 154.32 220.51 154.73 221.12 C 152.65 222.85 150.12 224.38 149.33 227.15 C 147.61 232.26 144.41 237.43 145.81 243.01 C 148.55 253.98 151.46 264.91 154.29 275.86 C 155.72 281.18 156.49 286.78 159.23 291.64 C 161.17 290.16 161.83 287.76 162.40 285.51 C 165.88 271.51 169.00 257.43 172.60 243.47 C 174.52 237.95 170.99 232.75 169.21 227.72 C 168.24 224.74 165.78 222.72 163.46 220.81 C 163.75 220.22 164.33 219.03 164.62 218.44 C 170.93 218.47 177.29 218.05 183.54 219.14 C 183.39 221.04 183.06 222.95 183.26 224.87 C 183.71 227.56 185.88 229.43 187.56 231.41 C 185.58 233.72 183.27 235.72 181.28 238.03 C 181.79 242.10 186.00 243.62 189.09 245.39 C 184.98 257.21 181.83 269.45 181.06 281.98 C 177.80 284.85 173.69 286.62 170.29 289.35 C 156.30 299.93 142.77 311.11 129.15 322.16 C 127.23 323.60 125.38 325.35 122.99 325.97 C 119.26 325.00 116.07 322.19 112.05 322.26 C 106.69 322.23 101.30 322.06 95.95 322.45 C 92.93 323.08 89.95 324.54 87.83 326.82 C 85.99 328.83 88.49 330.87 90.18 331.87 C 92.57 331.73 94.78 330.69 97.01 329.92 C 97.62 330.27 98.83 330.97 99.43 331.31 C 98.32 333.96 97.23 337.13 94.10 337.94 C 84.63 341.22 75.06 344.77 64.99 345.59 C 59.04 346.14 53.18 342.50 47.32 344.89 C 53.39 352.99 63.61 355.67 72.56 359.28 C 79.08 360.91 85.95 361.28 92.61 360.53 C 99.23 358.55 105.55 355.66 111.80 352.74 C 117.23 350.30 122.97 348.71 128.55 346.66 C 135.54 344.12 141.49 339.54 147.88 335.84 C 159.05 328.76 170.05 321.42 181.08 314.12 C 187.50 309.69 194.28 305.23 198.54 298.51 C 201.56 294.02 203.31 288.88 205.38 283.93 C 206.70 287.70 208.37 291.36 209.50 295.19 C 209.90 301.33 209.66 307.52 208.43 313.56 C 207.54 317.27 209.38 320.96 208.54 324.67 C 207.97 327.60 206.29 330.14 205.08 332.83 C 201.08 341.47 197.17 350.19 194.32 359.29 C 191.48 367.36 189.97 375.81 187.51 384.00 L 0.00 384.00 L 0.00 273.00 C 2.37 264.95 6.21 257.31 7.89 249.11 C 5.94 243.10 4.61 236.45 0.00 231.80 L 0.00 225.28 C 8.52 220.59 16.27 214.63 23.32 207.95 C 21.54 212.78 18.38 217.01 16.91 221.94 C 18.57 234.45 21.09 246.85 23.10 259.32 C 24.08 264.51 24.48 269.90 26.77 274.74 C 28.54 272.71 30.02 270.42 30.79 267.83 C 35.80 252.83 41.52 238.06 46.37 223.02 C 45.20 218.52 43.60 214.13 42.02 209.76 C 41.15 207.26 38.56 206.03 37.10 203.94 C 37.21 202.56 37.35 201.18 37.53 199.81 C 36.37 198.57 35.20 197.35 34.03 196.14 C 37.57 192.24 40.48 187.76 44.49 184.31 Z" />
    <path fill="#000000" opacity="1.00" d=" M 460.77 185.79 C 462.78 184.47 465.86 182.83 467.81 185.17 C 471.05 188.64 474.09 192.33 476.92 196.14 C 475.92 198.07 474.40 199.80 474.23 202.07 C 473.99 206.10 469.66 208.06 468.97 211.95 C 467.86 216.26 466.09 220.48 465.62 224.92 C 471.21 240.65 477.38 256.20 483.09 271.90 C 483.93 274.50 485.43 276.81 487.36 278.76 C 489.63 272.80 489.76 266.33 490.61 260.08 C 492.15 248.38 493.43 236.65 495.05 224.96 C 495.22 223.44 495.43 221.82 494.62 220.45 C 492.49 216.21 489.76 212.29 487.82 207.95 C 495.12 214.84 503.13 221.05 512.00 225.81 L 512.00 233.00 C 510.50 234.94 508.60 236.75 508.24 239.30 C 507.37 243.55 505.80 247.69 505.50 252.04 C 507.14 257.28 509.61 262.24 512.00 267.19 L 512.00 384.00 L 324.46 384.00 C 320.50 368.06 316.37 351.98 308.72 337.33 C 306.89 332.33 304.21 327.72 302.14 322.84 C 300.96 320.49 303.41 318.36 303.38 316.00 C 302.85 310.34 301.06 304.83 300.83 299.14 C 301.49 295.39 304.07 292.34 305.16 288.72 C 307.45 295.15 310.91 301.33 316.43 305.53 C 326.70 313.32 338.30 319.09 349.28 325.77 C 358.83 331.04 368.04 337.19 378.51 340.53 C 388.58 343.96 396.74 351.08 406.24 355.66 C 411.58 358.46 417.74 358.42 423.52 359.62 C 428.75 360.82 433.84 358.60 438.94 357.80 C 445.59 357.05 451.72 353.17 455.87 348.03 C 449.25 345.54 442.10 347.90 435.34 346.15 C 426.39 344.39 418.67 339.30 410.55 335.45 C 407.13 334.14 406.01 330.35 406.12 327.01 C 408.87 327.51 411.31 328.95 414.00 329.63 C 416.08 330.19 417.41 328.32 418.63 326.99 C 417.61 323.17 413.71 321.11 410.33 319.72 C 402.43 317.65 394.21 315.22 386.00 316.96 C 383.00 317.73 379.58 318.14 376.93 316.15 C 360.12 304.66 344.46 291.37 326.62 281.42 C 327.67 269.22 323.71 257.24 320.49 245.62 C 322.66 244.48 324.96 243.46 326.75 241.74 C 327.65 240.98 328.74 239.51 327.85 238.36 C 326.05 235.88 324.43 233.25 322.26 231.06 C 323.93 229.35 325.80 227.76 327.01 225.67 C 327.53 223.59 326.66 221.48 326.32 219.44 C 332.66 218.77 339.07 217.76 345.45 218.65 C 346.33 219.32 347.19 220.03 348.02 220.78 C 345.37 222.93 342.61 225.25 341.78 228.73 C 340.49 233.53 337.24 238.30 338.70 243.44 C 343.05 259.65 346.57 276.08 350.80 292.32 C 351.54 293.83 351.69 296.48 353.77 296.67 C 356.27 291.97 356.59 286.54 357.78 281.44 C 360.47 269.56 362.75 257.59 365.50 245.72 C 366.05 243.03 367.09 240.13 365.74 237.49 C 363.27 231.68 362.11 224.57 356.20 221.10 C 356.97 220.20 357.73 219.31 358.50 218.42 C 369.00 218.50 379.60 217.68 389.94 219.93 C 387.66 222.17 385.67 224.76 385.11 227.99 C 384.35 231.86 382.05 235.61 382.54 239.62 C 386.68 253.83 391.75 267.74 395.99 281.91 C 397.60 286.01 398.05 291.00 401.66 293.97 C 402.76 291.60 403.29 289.03 403.68 286.47 C 405.49 275.03 406.99 263.55 408.87 252.12 C 409.51 247.12 410.67 242.17 410.84 237.12 C 409.27 232.92 407.09 228.94 405.32 224.81 C 404.33 222.16 401.86 220.70 399.64 219.22 C 399.86 217.50 400.07 215.79 400.29 214.08 C 410.24 207.27 420.28 199.84 432.29 197.19 C 431.97 198.85 431.95 200.64 430.92 202.07 C 428.27 206.26 427.24 211.17 425.81 215.86 C 424.91 218.40 425.66 221.06 426.61 223.46 C 430.77 234.17 433.97 245.22 438.03 255.97 C 440.38 261.97 441.22 268.82 445.66 273.78 C 446.66 270.86 447.40 267.85 447.81 264.79 C 449.93 250.41 451.60 235.96 454.00 221.62 C 454.65 218.71 454.74 215.54 452.98 212.98 C 450.35 208.66 448.76 203.56 444.89 200.12 C 443.20 198.76 443.11 196.45 442.48 194.54 C 448.79 192.09 455.08 189.49 460.77 185.79 Z" />
    <path fill="#ffffff" opacity="1.00" d=" M 0.00 231.80 C 4.61 236.45 5.94 243.10 7.89 249.11 C 6.21 257.31 2.37 264.95 0.00 273.00 L 0.00 231.80 Z" />
    <path fill="#ffffff" opacity="1.00" d=" M 508.24 239.30 C 508.60 236.75 510.50 234.94 512.00 233.00 L 512.00 267.19 C 509.61 262.24 507.14 257.28 505.50 252.04 C 505.80 247.69 507.37 243.55 508.24 239.30 Z" />
</svg>